<svg xmlns="http://www.w3.org/2000/svg" xmlns:xlink="http://www.w3.org/1999/xlink" width="48" height="40.2" viewBox="0 0 48 44.8" fill="#19af54"><path d="M39.1 3.6a2.26 2.26 0 0 1 2.3 2.3v19.2a2.26 2.26 0 0 1-2.3 2.3h-3.6l-.2 9.1-5-9.1h-20A2.26 2.26 0 0 1 8 25.1V5.9a2.26 2.26 0 0 1 2.3-2.3h28.8m0-2H10.3C7.9 1.6 6 3.6 6 5.9v19.2c0 2.4 1.9 4.3 4.3 4.3h18.9l4.4 8.1c.4.7 1 1 1.8 1 .2 0 .3 0 .5-.1.9-.2 1.5-1 1.5-1.9l.1-7.2h1.6c2.4 0 4.3-1.9 4.3-4.3V5.9c0-2.3-1.9-4.3-4.3-4.3h0zm-15 21.7h-1.2c-7.7-.6-12.4-7-12.6-7.3a1.08 1.08 0 0 1 .2-1.4 1.08 1.08 0 0 1 1.4.2c0 .1 4.4 5.9 11.1 6.4 4.6.4 9.4-1.8 14.1-6.6.4-.4 1-.4 1.4 0s.4 1 0 1.4c-4.7 4.8-9.5 7.3-14.4 7.3zM16.4 10h0a1.79 1.79 0 0 1-1.8-1.8h0a1.79 1.79 0 0 1 1.8-1.8h0a1.79 1.79 0 0 1 1.8 1.8h0a1.79 1.79 0 0 1-1.8 1.8zm15.2 0h0a1.79 1.79 0 0 1-1.8-1.8h0a1.79 1.79 0 0 1 1.8-1.8h0a1.79 1.79 0 0 1 1.8 1.8h0c-.1 1-.9 1.8-1.8 1.8z"/></svg>