<svg xmlns="http://www.w3.org/2000/svg" width="48" height="40.2" fill="#19af54"><path d="M47.8 30.8c-.2-.3-.5-.4-.8-.4h-2.7V1.8a.94.94 0 0 0-1-1H4.7a.94.94 0 0 0-1 1v28.6H1c-.3 0-.6.1-.8.4-.2.2-.2.5-.2.8 1.5 5 6.2 8.6 11.5 8.6h25A12 12 0 0 0 48 31.6c0-.3 0-.6-.2-.8zM5.7 2.8h36.5v2.6H5.7V2.8zm36.5 4.6v18.3H5.8V7.4h36.4zM5.7 27.7h36.5v2.6H5.7v-2.6zm30.8 10.5h-25c-3.9 0-7.5-2.3-9.1-5.8h43.1c-1.5 3.5-5.1 5.8-9 5.8zM29 34.3H19a.94.94 0 0 0-1 1 .94.94 0 0 0 1 1h10a.94.94 0 0 0 1-1c0-.6-.5-1-1-1z"/></svg>