<svg id="Layer_1" xmlns="http://www.w3.org/2000/svg" xmlns:xlink="http://www.w3.org/1999/xlink" width="48" height="48" viewBox="0 0 48 48" style="enable-background:new 0 0 48 48"><style>.st0{fill:#19af54}</style><g><path class="st0" d="M24 11.8c-6.7.0-12.2 5.5-12.2 12.2S17.3 36.2 24 36.2 36.2 30.7 36.2 24 30.7 11.8 24 11.8zM24 34.2c-5.6.0-10.2-4.6-10.2-10.2S18.4 13.8 24 13.8 34.2 18.4 34.2 24 29.6 34.2 24 34.2z"/><path class="st0" d="M47.2 19.7l-5.8-1c-.3-1.1-.8-2.1-1.3-3.1l3.3-4.8c.3-.4.2-.9-.1-1.3l-4.8-4.8c-.3-.3-.9-.4-1.3-.1l-4.8 3.3c-1-.5-2-1-3.1-1.3l-1-5.8c-.1-.5-.5-.8-1-.8h-6.7c-.5.0-.9.3-1 .8l-1 5.8c-1.1.3-2.1.8-3.1 1.3l-4.8-3.3c-.4-.3-.9-.2-1.3.1L4.7 9.4c-.3.3-.4.9-.1 1.3l3.3 4.8c-.5 1-1 2-1.3 3.1l-5.8 1c-.5.1-.8.5-.8 1v6.7c0 .5.3.9.8 1l5.8 1c.3 1.1.8 2.1 1.3 3.1l-3.3 4.8c-.3.4-.2.9.1 1.3l4.8 4.8c.3.3.9.4 1.3.1l4.8-3.3c1 .5 2 1 3.1 1.3l1 5.8c.1.5.5.8 1 .8h6.7c.5.0.9-.3 1-.8l1-5.8c1.1-.3 2.1-.8 3.1-1.3l4.8 3.3c.4.3.9.2 1.3-.1l4.8-4.8c.3-.3.4-.9.1-1.3l-3.3-4.8c.5-1 1-2 1.3-3.1l5.8-1c.5-.1.8-.5.8-1v-6.7C48 20.2 47.7 19.7 47.2 19.7zM46 26.5l-5.5 1c-.4.1-.7.3-.8.7-.4 1.3-.9 2.6-1.6 3.8-.2.3-.2.8.0 1.1l3.2 4.6-3.6 3.6-4.6-3.2c-.3-.2-.7-.2-1.1.0-1.2.7-2.5 1.2-3.8 1.6-.4.1-.7.4-.7.8l-1 5.5h-5.1l-1-5.5c-.1-.4-.4-.7-.7-.8-1.3-.4-2.6-.9-3.8-1.6-.3-.2-.8-.2-1.1.0l-4.6 3.2-3.6-3.6 3.2-4.6c.2-.3.2-.7.0-1.1-.7-1.2-1.2-2.5-1.6-3.8-.1-.4-.4-.7-.8-.7l-5.5-1v-5.1l5.5-1c.4-.1.7-.3.8-.7.4-1.3.9-2.6 1.6-3.8.2-.3.2-.8.0-1.1l-3.2-4.6 3.6-3.6 4.6 3.2c.3.2.7.2 1.1.0 1.2-.7 2.5-1.2 3.8-1.6.4-.1.7-.4.7-.8l1-5.5h5.1l1 5.5c.1.4.4.7.7.8 1.3.4 2.6.9 3.8 1.6.3.2.8.2 1.1.0l4.6-3.2 3.6 3.6-3.2 4.6c-.2.3-.2.7.0 1.1.7 1.2 1.2 2.5 1.6 3.8.1.4.4.7.8.7l5.5 1V26.5z"/></g></svg>