<svg id="Layer_1" xmlns="http://www.w3.org/2000/svg" xmlns:xlink="http://www.w3.org/1999/xlink" width="48" height="48.5" viewBox="0 0 48 48.5" style="enable-background:new 0 0 48 48.5"><style>.st0{fill:#19af54}</style><g><path class="st0" d="M39.7 15.8c-1-.1-2 .3-2.8.9-.7-1.4-2.1-2.3-3.7-2.3-1 0-1.9.4-2.6 1-.7-1.3-2.1-2.2-3.7-2.2-.8.0-1.5.2-2.1.6V4.1c0-2.3-1.9-4.1-4.1-4.1-2.3.0-4.1 1.9-4.1 4.1v23.3L14 24.3c-1.8-2.2-5-2.7-7.3-1.1-1.2.9-2.1 2.2-2.3 3.7-.2 1.5.2 3 1.2 4.2l14.8 16.6c.2.2.5.3.7.3h17.7c.3.0.7-.2.8-.5 2.5-3.9 3.9-8.5 3.9-13.2V20.1C43.6 17.8 41.9 15.9 39.7 15.8zM41.6 34.4c0 4.1-1.1 8.1-3.3 11.6H21.6L7.2 29.8c-.6-.7-.9-1.7-.8-2.6s.6-1.8 1.4-2.3c1.4-1 3.4-.6 4.6.7l4 5V31c0 .6.4 1 1 1s1-.4 1-1V4.1c0-1.2 1-2.1 2.1-2.1 1.2.0 2.1 1 2.1 2.1v13.1V31c0 .6.4 1 1 1s1-.4 1-1V17.3c0-1.2 1-2.1 2.1-2.1 1.2.0 2.1 1 2.1 2.1v1.3V31c0 .6.4 1 1 1s1-.4 1-1V18.6c0-1.2 1-2.1 2.1-2.1 1.2.0 2.1 1 2.1 2.1V20v11c0 .6.4 1 1 1s1-.4 1-1V19.9c0-.6.2-1.1.7-1.6.4-.4 1-.6 1.6-.6 1.1.1 2 1.1 2 2.3v14.4H41.6z"/></g></svg>