<svg id="Layer_1" xmlns="http://www.w3.org/2000/svg" xmlns:xlink="http://www.w3.org/1999/xlink" width="48" height="41.4" viewBox="0 0 48 41.4" style="enable-background:new 0 0 48 41.4"><style>.st0{fill:#19af54}</style><g><path class="st0" d="M44 8h-3.8l-2-4.9c-.6-1.5-2.1-2.5-3.7-2.5H23.8c-1.6.0-3.1 1-3.7 2.5l-2 4.9h-4.8V4.9c0-.6-.4-1-1-1H6.4c-.6.0-1 .4-1 1V8H4c-2.2.0-4 1.8-4 4v25.4c0 2.2 1.8 4 4 4h40c2.2.0 4-1.8 4-4V12C48 9.8 46.2 8 44 8zM21.9 3.9c.3-.8 1-1.2 1.9-1.2h10.7c.8.0 1.5.5 1.9 1.2L38 8H20.3L21.9 3.9zM7.4 5.9h3.9V8H7.4V5.9zM46 37.4c0 1.1-.9 2-2 2H4c-1.1.0-2-.9-2-2V12c0-1.1.9-2 2-2h40c1.1.0 2 .9 2 2V37.4z"/><path class="st0" d="M28.1 12.4c-6.8.0-12.3 5.5-12.3 12.3S21.4 37 28.1 37s12.3-5.5 12.3-12.3S34.9 12.4 28.1 12.4zm0 22.6c-5.7.0-10.3-4.6-10.3-10.3s4.6-10.3 10.3-10.3S38.4 19 38.4 24.7 33.8 35 28.1 35z"/><path class="st0" d="M28.1 18.1c-3.7.0-6.6 3-6.6 6.6s3 6.6 6.6 6.6c3.7.0 6.6-3 6.6-6.6S31.8 18.1 28.1 18.1zm0 11.2c-2.5.0-4.6-2.1-4.6-4.6s2.1-4.6 4.6-4.6 4.6 2.1 4.6 4.6S30.7 29.3 28.1 29.3z"/><path class="st0" d="M10.9 14.8H7.7c-.6.0-1 .4-1 1s.4 1 1 1h3.2c.6.0 1-.4 1-1S11.5 14.8 10.9 14.8z"/></g></svg>