<svg id="Layer_1" xmlns="http://www.w3.org/2000/svg" xmlns:xlink="http://www.w3.org/1999/xlink" width="48" height="40.2" viewBox="0 0 48 40.2" style="enable-background:new 0 0 48 40.2"><style>.st0{fill:#19af54}</style><g><path class="st0" d="M47.8 30.8c-.2-.3-.5-.4-.8-.4h-2.7V1.8c0-.6-.4-1-1-1H4.7c-.6.0-1 .4-1 1v28.6H1c-.3.0-.6.1-.8.4C0 31 0 31.3.0 31.6c1.5 5 6.2 8.6 11.5 8.6h25c5.3.0 10-3.5 11.5-8.6C48 31.3 48 31 47.8 30.8zM5.7 2.8h36.5v2.6H5.7V2.8zM42.2 7.4v18.3H5.8V7.4H42.2zM5.7 27.7h36.5v2.6H5.7V27.7zM36.5 38.2h-25c-3.9.0-7.5-2.3-9.1-5.8h43.1C44 35.9 40.4 38.2 36.5 38.2z"/><path class="st0" d="M29 34.3H19c-.6.0-1 .4-1 1s.4 1 1 1h10c.6.0 1-.4 1-1s-.5-1-1-1z"/></g></svg>