<svg xmlns="http://www.w3.org/2000/svg" xmlns:xlink="http://www.w3.org/1999/xlink" width="48" height="44.8" viewBox="0 0 48 44.8" fill="#19af54"><path d="M44.3 37.4V8.8a.94.94 0 0 0-1-1H4.7a.94.94 0 0 0-1 1v28.6s-.1 2 .3 2h40.3v-2zM5.7 9.8h36.5v2.6H5.7V9.8zm36.5 4.6v18.3H5.8V14.4h36.4zM5.7 34.7h36.5v2.6H5.7v-2.6zm23.8-13.4h9.7V24h-9.7z"/><path d="M30.5 8.5c-.2-.8-.4-1.5-.8-2.2-.6.5-1 1.2-1.3 1.9 0 .1.1.2.1.3h2zm-7.4-4.2c1.6 0 3.1.7 4.1 1.8.4-.6.8-1.1 1.3-1.5-1.4-1.4-3.3-2.3-5.4-2.3-3.7 0-6.8 2.6-7.4 6.1h2.1c.6-2.3 2.7-4.1 5.3-4.1z"/><path d="M28.3 8.5c0-.1.1-.2.1-.3-.3-.8-.7-1.4-1.2-2-.5.7-.8 1.5-1 2.3h2.1zm5.3-3.8c2.4 0 4.5 1.6 5.3 3.8H41c-.8-3.3-3.8-5.8-7.4-5.8-1.9 0-3.7.7-5 1.9.5.5.9 1 1.2 1.6.9-.9 2.3-1.5 3.8-1.5z"/><path d="M27.2 6.1c.5.6.9 1.3 1.2 2 .3-.7.8-1.4 1.3-1.9-.3-.6-.7-1.1-1.2-1.6-.5.5-.9 1-1.3 1.5z"/></svg>
