<?xml version="1.0" encoding="utf-8"?>
<!-- Generator: Adobe Illustrator 24.0.0, SVG Export Plug-In . SVG Version: 6.00 Build 0)  -->
<svg width="48" height="40.2" version="1.0" id="Capa_1" xmlns="http://www.w3.org/2000/svg" xmlns:xlink="http://www.w3.org/1999/xlink" x="0px" y="0px"
	 viewBox="0 0 520 512" style="enable-background:new 0 0 520 512;" xml:space="preserve">
<style type="text/css">
	.st0{fill:#6BAB36;}
</style>
<g id="github_x5F_black">
	<g>
		<g>
			<path class="st0" d="M488.63,261.56c0-126.27-102.36-228.63-228.63-228.63S31.37,135.29,31.37,261.56
				c0,100.22,64.49,185.37,154.24,216.24c5.47-3.95,11.77-8.82,11.77-17.02c0-12.57-0.27-44.92-0.27-44.92s-9.92,1.69-24.09,1.69
				c-35.69,0-46.97-22.65-52.34-35.32c-6.99-16.51-16.05-24.26-25.68-30.46c-5.91-3.81-7.27-8.29-0.43-9.58
				c31.59-5.92,39.66,35.63,60.76,42.25c15.06,4.72,34.42,2.68,44.05-3.52c1.27-12.69,10.47-23.66,18.13-29.44
				c-53.66-5.13-85.47-23.66-101.97-53.45l-1.77-3.34l-4.15-9.46l-1.22-3.39c-5.17-15.12-7.45-32.44-7.45-51.78
				c0-34.34,10.76-47.3,25.21-65.61c-11.05-39.15,3.97-65.91,3.97-65.91s23.23-4.79,67.13,26.48
				c23.79-10.14,87.24-10.99,117.26-2.25c18.41-12.11,52.12-29.3,65.71-24.48c3.68,5.89,11.61,23.08,4.82,60.82
				c4.61,8.28,28.61,25.91,28.7,75.77c-0.39,18.39-2.31,33.91-5.88,47.04l-1.98,6.72c0,0-1.13,3.17-2.37,6.19l-1.45,3.34
				c-15.92,34.77-48.57,47.75-101.33,53.15c17.1,10.7,22,24.13,22,60.47s-0.49,41.22-0.37,49.58c0.1,7.39,6.01,12.7,11.32,16.72
				C423.79,447.41,488.63,362.06,488.63,261.56z"/>
		</g>
	</g>
</g>
<g id="github_x5F_white">
</g>
<g id="github_x5F_blue_1_">
</g>
</svg>
