<svg id="Layer_1" xmlns="http://www.w3.org/2000/svg" xmlns:xlink="http://www.w3.org/1999/xlink" width="48" height="49" viewBox="0 0 48 49" style="enable-background:new 0 0 48 49"><style>.st0{fill:#19af54}</style><g><path class="st0" d="M28.7 10.6V1c0-.6-.4-1-1-1h-7.5c-.6.0-1 .4-1 1v9.6c-7.9 2.1-13.8 9.3-13.8 17.9.0.6.4 1 1 1h8.8c.5 4.4 4.2 7.8 8.7 7.8s8.2-3.4 8.7-7.8h8.8c.6.0 1-.4 1-1C42.5 19.9 36.7 12.7 28.7 10.6zM21.3 2h5.5v8.2c-2.7-.4-5.2.0-5.5.0V2zM24 35.3c-3.4.0-6.2-2.5-6.7-5.8h13.5C30.2 32.8 27.4 35.3 24 35.3zM7.5 27.5c.5-7.5 6-13.7 13.2-15.2.3-.1 3.8-.7 6.7.0 7.2 1.5 12.7 7.7 13.2 15.2H7.5z"/><path class="st0" d="M24 40.8c-.6.0-1 .4-1 1V47c0 .6.4 1 1 1s1-.4 1-1v-5.2C25 41.2 24.6 40.8 24 40.8z"/><path class="st0" d="M14.9 37.6l-3.7 3.7c-.4.4-.4 1 0 1.4.2.2.5.3.7.3.3.0.5-.1.7-.3l3.7-3.7c.4-.4.4-1 0-1.4C16 37.2 15.3 37.2 14.9 37.6z"/><path class="st0" d="M33.1 37.6c-.4-.4-1-.4-1.4.0s-.4 1 0 1.4l3.7 3.7c.2.2.5.3.7.3.3.0.5-.1.7-.3.4-.4.4-1 0-1.4L33.1 37.6z"/></g></svg>