<svg id="Layer_1" xmlns="http://www.w3.org/2000/svg" xmlns:xlink="http://www.w3.org/1999/xlink" width="48" height="48" viewBox="0 0 48 48" style="enable-background:new 0 0 48 48"><style>.st0{fill:#19af54}</style><g><path class="st0" d="M44 0H4C1.8.0.0 1.8.0 4v40c0 2.2 1.8 4 4 4h40c2.2.0 4-1.8 4-4V4C48 1.8 46.2.0 44 0zm2 44c0 1.1-.9 2-2 2H4c-1.1.0-2-.9-2-2V4c0-1.1.9-2 2-2h40c1.1.0 2 .9 2 2V44z"/><path class="st0" d="M9.6 8.5h-2c-.6.0-1 .4-1 1s.4 1 1 1h2.1c.6.0 1-.4 1-1C10.6 9 10.2 8.5 9.6 8.5z"/><path class="st0" d="M40.4 8.5H14.9c-.6.0-1 .4-1 1s.4 1 1 1h25.5c.6.0 1-.4 1-1C41.4 9 41 8.5 40.4 8.5z"/><path class="st0" d="M9.6 18.2h-2c-.6.0-1 .4-1 1s.4 1 1 1h2.1c.6.0 1-.4 1-1C10.6 18.6 10.2 18.2 9.6 18.2z"/><path class="st0" d="M40.4 18.2H14.9c-.6.0-1 .4-1 1s.4 1 1 1h25.5c.6.0 1-.4 1-1S41 18.2 40.4 18.2z"/><path class="st0" d="M9.6 27.8h-2c-.6.0-1 .4-1 1s.4 1 1 1h2.1c.6.0 1-.4 1-1C10.6 28.3 10.2 27.8 9.6 27.8z"/><path class="st0" d="M40.4 27.8H14.9c-.6.0-1 .4-1 1s.4 1 1 1h25.5c.6.0 1-.4 1-1C41.4 28.3 41 27.8 40.4 27.8z"/><path class="st0" d="M9.6 37.5h-2c-.6.0-1 .4-1 1s.4 1 1 1h2.1c.6.0 1-.4 1-1C10.6 37.9 10.2 37.5 9.6 37.5z"/><path class="st0" d="M40.4 37.5H14.9c-.6.0-1 .4-1 1s.4 1 1 1h25.5c.6.0 1-.4 1-1S41 37.5 40.4 37.5z"/></g></svg>