<svg id="Layer_1" xmlns="http://www.w3.org/2000/svg" xmlns:xlink="http://www.w3.org/1999/xlink" width="48" height="48" viewBox="0 0 48 48" style="enable-background:new 0 0 48 48"><style>.st0{fill:#19af54}</style><g><path class="st0" d="M24 10.7c-7.3.0-13.3 6-13.3 13.3s6 13.3 13.3 13.3 13.3-6 13.3-13.3S31.3 10.7 24 10.7zM24 35.3c-6.2.0-11.3-5.1-11.3-11.3S17.8 12.7 24 12.7 35.3 17.8 35.3 24 30.2 35.3 24 35.3z"/><path class="st0" d="M19.9 7.7c.3.0.6-.1.8-.4L24 2.7l3.3 4.6c.3.4.9.6 1.4.2.4-.3.6-.9.2-1.4l-4.1-5.7C24.6.2 24.3.0 24 0s-.6.2-.8.4l-4.1 5.7c-.3.4-.2 1.1.2 1.4C19.5 7.7 19.7 7.7 19.9 7.7z"/><path class="st0" d="M27.3 40.7 24 45.3l-3.3-4.6c-.3-.4-.9-.6-1.4-.2-.4.3-.6.9-.2 1.4l4.1 5.7c.2.3.5.4.8.4s.6-.2.8-.4l4.1-5.7c.3-.4.2-1.1-.2-1.4C28.2 40.1 27.6 40.3 27.3 40.7z"/><path class="st0" d="M33.5 9.9 39 9l-.9 5.6c-.1.5.3 1.1.8 1.1.1.0.1.0.2.0.5.0.9-.3 1-.8L41.2 8c.1-.4.0-.7-.2-1-.2-.2-.6-.3-.9-.3l-6.9 1.1C32.6 8 32.3 8.5 32.3 9 32.4 9.6 32.9 10 33.5 9.9z"/><path class="st0" d="M14.5 38.1 9 39l.9-5.6c.1-.5-.3-1.1-.8-1.1C8.6 32.2 8 32.6 8 33.1L6.9 40c-.2.4-.1.7.1 1 .2.2.4.3.7.3.1.0.1.0.2.0l6.9-1.1c.5-.1.9-.6.8-1.1C15.6 38.4 15.1 38 14.5 38.1z"/><path class="st0" d="M47.6 23.2l-5.7-4.1c-.4-.3-1.1-.2-1.4.2s-.2 1.1.2 1.4l4.6 3.3-4.6 3.3c-.4.3-.6.9-.2 1.4.2.3.5.4.8.4.2.0.4-.1.6-.2l5.7-4.1c.3-.2.4-.5.4-.8S47.8 23.4 47.6 23.2z"/><path class="st0" d="M7.3 27.3 2.7 24l4.6-3.3c.4-.3.6-.9.2-1.4-.3-.4-.9-.6-1.4-.2l-5.7 4.1C.2 23.4.0 23.7.0 24s.2.6.4.8l5.7 4.1c.2.1.4.2.6.2.3.0.6-.1.8-.4C7.9 28.2 7.7 27.6 7.3 27.3z"/><path class="st0" d="M40.1 33.2c-.1-.5-.6-.9-1.1-.8-.5.1-.9.6-.8 1.1L39 39l-5.6-.9c-.5-.1-1.1.3-1.1.8-.1.5.3 1.1.8 1.1l6.9 1.1c.1.0.1.0.2.0.3.0.5-.1.7-.3s.3-.6.3-.9L40.1 33.2z"/><path class="st0" d="M7.9 14.8c.1.5.5.8 1 .8.1.0.1.0.2.0.5-.1.9-.6.8-1.1L9 9l5.6.9c.4.1 1-.3 1.1-.9.1-.5-.3-1.1-.8-1.1l-7-1.1C7.6 6.7 7.3 6.8 7 7 6.8 7.3 6.7 7.6 6.8 7.9L7.9 14.8z"/></g></svg>