<svg id="Capa_1" enable-background="new 0 0 512 512" height="48" viewBox="0 0 512 512" width="48" xmlns="http://www.w3.org/2000/svg"><g><g><g><path d="m428.617 0h-327.312c-16.497 0-29.87 13.373-29.87 29.87v423.31c0-20.12 16.31-36.43 36.43-36.43h21.473 222.499l88.727-280.933v-123.869c.001-6.599-5.349-11.948-11.947-11.948z" fill="#f6e738"/></g></g><g><g><path d="m407.305 453.18c0-15.246 7.843-28.653 19.707-36.43h-319.146c-20.12 0-36.43 16.31-36.43 36.43 0 20.12 16.31 36.43 36.43 36.43h310.063c2.91 0 4.292-3.508 2.227-5.559-7.936-7.884-12.851-18.801-12.851-30.871z" fill="#eaeaea"/></g></g><g><g><path d="m428.617 0h-31.861v314.866c0 30.974-25.109 56.083-56.083 56.083h-269.237v82.231c0-20.12 16.31-36.43 36.43-36.43h243.972l88.727-280.933v-123.869c0-6.599-5.35-11.948-11.948-11.948z" fill="#ecc32e"/></g></g><g><g><path d="m407.305 453.18c0-15.246 7.842-28.653 19.707-36.43h-29.819c-11.865 7.777-19.708 21.184-19.708 36.43v.139c.023 7.212-5.662 13.133-12.874 13.133h-290.671c5.307 13.554 18.49 23.158 33.925 23.158h289.327 20.736c2.91 0 4.291-3.508 2.227-5.559-7.934-7.883-12.85-18.801-12.85-30.871z" fill="#c6d0da"/></g></g><g><path d="m440.565 135.817-28.576 1.289 1.275-30.951c.193-4.675-3.659-8.511-8.333-8.301l-28.447 1.283-3.147-33.537c-.437-4.658-4.769-7.943-9.372-7.106l-35.16 6.391-12.98-23.413c-2.268-4.092-7.554-5.363-11.435-2.751l-25.433 17.12-21.517-14.511c-3.879-2.616-9.166-1.349-11.438 2.74l-15.103 27.184c-3.373 6.071 2.081 13.254 8.835 11.636l40.886-9.795 41.439 7.204 118.507 112.487v-56.969z" fill="#7fd061"/></g><g><path d="m396.755 151.202 43.809 41.584v-56.97l-28.576 1.289 1.275-30.951c.193-4.675-3.659-8.511-8.333-8.301l-8.176.369v52.98z" fill="#51be26"/></g><g><path d="m168.403 228.045-.71.336c-6.318 2.99-13.864.292-16.854-6.026l-9.691-20.477 23.59-11.165 9.691 20.477c2.99 6.319.292 13.864-6.026 16.855z" fill="#f8f5f5"/></g><g><path d="m440.565 404.801v-222.404l-71.91-71.91c-3.918-3.918-7.56-8.096-11.114-12.347-1.821-2.179-3.785-4.246-5.881-6.197-23.429-21.804-63.163-29.186-102.073-16.008-52.062 17.631-139.405 98.054-122.841 138.371.781 1.9 1.591 3.738 2.43 5.515.731 1.55 2.585 2.205 4.129 1.463l81.378-39.108s7.061 30.21-15.754 55.98c-7.677 8.671-15.496 14.761-22.981 18.999-2.392 1.354-1.998 4.869.633 5.664 25.04 7.561 54.376 2.987 81.949-4.933 6.446-1.851 13.296 1.18 16.33 7.161l76.978 151.703h76.779c6.598-.001 11.948-5.35 11.948-11.949z" fill="#51be26"/></g><g><path d="m328.597 370.949 23.24 45.8h76.779c6.599 0 11.948-5.349 11.948-11.948v-222.404l-43.809-43.809v176.278c0 30.974-25.109 56.083-56.083 56.083z" fill="#49a61f"/></g><g><circle cx="228.135" cy="141.226" fill="#465961" r="13.074"/></g><g><g><g><path d="m197.091 511.203-28.963-21.182-28.963 21.182c-2.706 1.979-6.513.046-6.513-3.306v-64.659h70.953v64.659c-.001 3.352-3.809 5.285-6.514 3.306z" fill="#c73044"/></g></g><g><g><path d="m168.127 443.238v46.783l28.963 21.182c2.706 1.979 6.513.046 6.513-3.306v-64.659z" fill="#952436"/></g></g></g><g><path d="m256 450.971h-129.02c-4.271 0-7.733-3.462-7.733-7.733s3.462-7.733 7.733-7.733h129.02c4.271 0 7.733 3.462 7.733 7.733s-3.462 7.733-7.733 7.733z" fill="#c6d0da"/></g></g></svg>